<svg width="24" height="24" viewBox="0 0 24 24" fill="none" xmlns="http://www.w3.org/2000/svg">
<path d="M13.5 19.5L12 21L5 14C3.5 12.55 2 10.8 2 8.5C2 7.04131 2.57946 5.64236 3.61091 4.61091C4.64236 3.57946 6.04131 3 7.5 3C9.26 3 10.5 3.5 12 5C13.5 3.5 14.74 3 16.5 3C17.3064 3.00093 18.1028 3.17919 18.8327 3.52216C19.5626 3.86512 20.2081 4.3644 20.7236 4.98462C21.239 5.60484 21.6118 6.33082 21.8154 7.11113C22.0191 7.89144 22.0486 8.70699 21.902 9.5" stroke="#B0B0B0" stroke-width="1.5" stroke-linecap="round" stroke-linejoin="round"/>
<path d="M15 15H21" stroke="#B0B0B0" stroke-width="1.5" stroke-linecap="round" stroke-linejoin="round"/>
<path d="M18 12V18" stroke="#B0B0B0" stroke-width="1.5" stroke-linecap="round" stroke-linejoin="round"/>
</svg>
